# xmcd CD database file
#
# Track frame offsets:
#	150
#	11890
#	27782
#	44837
#	63835
#	77695
#	99352
#	124215
#	142295
#	158640
#	167932
#	181652
#	201252
#
# Disc length: 2828 seconds
#
# Revision: 0
# Processed by: cddbd v1.5.1PL0 Copyright (c) Steve Scherf et al.
# Submitted via: CDex 1.51
#
DISCID=b10b0a0d
DTITLE=Roland Hanna with Helen Merrill - PLAYS THE MUSIC OF ALEC WILDER
DYEAR=1978
DGENRE=Jazz
TTITLE0=The Starlighter
TTITLE1=Mimosa And Me
TTITLE2=While We're Young
TTITLE3=Blackberry Winter
TTITLE4=Remember My Child
TTITLE5=It's So Peaceful
TTITLE6=I'll Be Around
TTITLE7=That's My Girl
TTITLE8=The Sounds Around The House
TTITLE9=You're Free
TTITLE10=Moon And Sand
TTITLE11=Ellen
TTITLE12=The Star Wish
EXTD=YEAR: 1978
EXTT0=
EXTT1=
EXTT2=
EXTT3=
EXTT4=
EXTT5=
EXTT6=
EXTT7=
EXTT8=
EXTT9=
EXTT10=
EXTT11=
EXTT12=
PLAYORDER=
